<svg width="17" height="18" viewBox="0 0 17 18" fill="none" xmlns="http://www.w3.org/2000/svg">
<path fill-rule="evenodd" clip-rule="evenodd" d="M14.5463 0.666992H15.8518C16.3632 0.666992 16.7777 1.08154 16.7777 1.59292V3.90773C16.7777 4.16342 16.5705 4.3707 16.3148 4.3707H14.5833C14.4504 4.38047 14.3285 4.44819 14.25 4.55588H14.2037C14.0734 4.68599 14.0001 4.8625 14 5.04662V6.67625C14 6.93194 13.7927 7.13921 13.537 7.13921H11.8889C11.7047 7.13938 11.5282 7.21265 11.3981 7.34292L11.1574 7.58366C11.0271 7.71377 10.9538 7.89028 10.9537 8.0744V8.74107C10.9527 8.98397 10.8562 9.21675 10.6852 9.38921L9.87034 10.204C10.1498 10.8469 10.2947 11.5401 10.2963 12.2411C10.2963 15.0536 8.01624 17.3337 5.20368 17.3337C2.39111 17.3337 0.111084 15.0536 0.111084 12.2411C0.111084 9.4285 2.39111 7.14847 5.20368 7.14847C5.90883 7.14762 6.60619 7.29592 7.24997 7.58366L13.8981 0.935511C14.0706 0.764451 14.3034 0.668015 14.5463 0.666992ZM2.37034 13.2225C2.37034 14.2453 3.19945 15.0744 4.22219 15.0744C4.71334 15.0744 5.18436 14.8793 5.53165 14.532C5.87894 14.1847 6.07405 13.7137 6.07405 13.2225C6.07405 12.1998 5.24494 11.3707 4.22219 11.3707C3.19945 11.3707 2.37034 12.1998 2.37034 13.2225Z" fill="#FF7707"/>
</svg>
