<svg width="16" height="16" viewBox="0 0 16 16" fill="none" xmlns="http://www.w3.org/2000/svg">
<path fill-rule="evenodd" clip-rule="evenodd" d="M2.16667 13.8333H6.75C6.98012 13.8333 7.16667 14.0199 7.16667 14.25V15.0833C7.16667 15.3135 6.98012 15.5 6.75 15.5H2.16667C1.24619 15.5 0.5 14.7538 0.5 13.8333V2.16667C0.5 1.24619 1.24619 0.5 2.16667 0.5H6.75C6.98012 0.5 7.16667 0.686548 7.16667 0.916667V1.75C7.16667 1.98012 6.98012 2.16667 6.75 2.16667H2.16667V13.8333ZM11.0333 3.125L15.3167 7.4C15.4324 7.5181 15.4981 7.67632 15.5 7.84167V8.15833C15.4999 8.32404 15.4339 8.4829 15.3167 8.6L11.0333 12.875C10.9551 12.9539 10.8486 12.9983 10.7375 12.9983C10.6264 12.9983 10.5199 12.9539 10.4417 12.875L9.85 12.2917C9.77112 12.2134 9.72675 12.1069 9.72675 11.9958C9.72675 11.8847 9.77112 11.7782 9.85 11.7L12.725 8.83333H4.25C4.01988 8.83333 3.83333 8.64679 3.83333 8.41667V7.58333C3.83333 7.35322 4.01988 7.16667 4.25 7.16667H12.725L9.85 4.3C9.77161 4.2232 9.72744 4.11807 9.72744 4.00833C9.72744 3.89859 9.77161 3.79347 9.85 3.71667L10.4417 3.125C10.5199 3.04612 10.6264 3.00175 10.7375 3.00175C10.8486 3.00175 10.9551 3.04612 11.0333 3.125Z" fill="#FF7707"/>
</svg>
